HIERARCHY
ROOT RootJoint
{
    OFFSET   0.000000   0.000000   0.000000
    CHANNELS 6 Xposition Yposition Zposition Xrotation Yrotation Zrotation
    JOINT pelvis_lowerback
    {
        OFFSET   0.000000   0.093605   0.000000
        CHANNELS 3 Xrotation Yrotation Zrotation
        JOINT lowerback_torso
        {
            OFFSET   0.000000   0.100000   0.000000
            CHANNELS 3 Xrotation Yrotation Zrotation
            JOINT torso_head
            {
                OFFSET   0.000000   0.282350   0.000000
                CHANNELS 3 Xrotation Yrotation Zrotation
                End Site
                {
                    OFFSET   0.000000   0.192650   0.000000
                }
            }
            JOINT rTorso_Clavicle
            {
                OFFSET  -0.001000   0.157500   0.000000
                CHANNELS 3 Xrotation Yrotation Zrotation
                JOINT rShoulder
                {
                    OFFSET  -0.117647   0.000000   0.000000
                    CHANNELS 3 Xrotation Yrotation Zrotation
                    JOINT rElbow
                    {
                        OFFSET  -0.245000   0.000000   0.000000
                        CHANNELS 3 Xrotation Yrotation Zrotation
                        JOINT rWrist
                        {
                            OFFSET  -0.240000   0.000000   0.000000
                            CHANNELS 3 Xrotation Yrotation Zrotation
                            End Site
                            {
                                OFFSET  -0.116353  -0.002500   0.000000
                            }
                        }
                    }
                }
            }
            JOINT lTorso_Clavicle
            {
                OFFSET   0.001000   0.157500   0.000000
                CHANNELS 3 Xrotation Yrotation Zrotation
                JOINT lShoulder
                {
                    OFFSET   0.117647   0.000000   0.000000
                    CHANNELS 3 Xrotation Yrotation Zrotation
                    JOINT lElbow
                    {
                        OFFSET   0.245000   0.000000   0.000000
                        CHANNELS 3 Xrotation Yrotation Zrotation
                        JOINT lWrist
                        {
                            OFFSET   0.240000   0.000000   0.000000
                            CHANNELS 3 Xrotation Yrotation Zrotation
                            End Site
                            {
                                OFFSET   0.116353  -0.002500   0.000000
                            }
                        }
                    }
                }
            }
        }
    }
    JOINT rHip
    {
        OFFSET  -0.100000  -0.051395   0.000000
        CHANNELS 3 Xrotation Yrotation Zrotation
        JOINT rKnee
        {
            OFFSET   0.000000  -0.410000   0.000000
            CHANNELS 3 Xrotation Yrotation Zrotation
            JOINT rAnkle
            {
                OFFSET   0.000000  -0.390000   0.000000
                CHANNELS 3 Xrotation Yrotation Zrotation
                JOINT rToeJoint
                {
                    OFFSET   0.000000  -0.050000   0.130000
                    CHANNELS 3 Xrotation Yrotation Zrotation
                    End Site
                    {
                        OFFSET  -0.010000   0.002000   0.060000
                    }
                }
            }
        }
    }
    JOINT lHip
    {
        OFFSET   0.100000  -0.051395   0.000000
        CHANNELS 3 Xrotation Yrotation Zrotation
        JOINT lKnee
        {
            OFFSET   0.000000  -0.410000   0.000000
            CHANNELS 3 Xrotation Yrotation Zrotation
            JOINT lAnkle
            {
                OFFSET   0.000000  -0.390000   0.000000
                CHANNELS 3 Xrotation Yrotation Zrotation
                JOINT lToeJoint
                {
                    OFFSET   0.000000  -0.050000   0.130000
                    CHANNELS 3 Xrotation Yrotation Zrotation
                    End Site
                    {
                        OFFSET   0.010000   0.002000   0.060000
                    }
                }
            }
        }
    }
}
MOTION
Frames: 14
Frame Time:   0.008333
 -2.376719   0.925631   3.975860   0.000000   0.000000   0.000000   0.000000   0.000000   0.000000   0.000000   0.000000   0.000000   0.000000   0.000000   0.000000   0.000000   0.000000   0.000000   0.000000   0.000000   0.000000   0.000000   0.000000   0.000000   0.000000   0.000000   0.000000   0.000000   0.000000   0.000000   0.000000   0.000000   0.000000   0.000000   0.000000   0.000000   0.000000   0.000000   0.000000   0.000000   0.000000   0.000000   0.000000   0.000000   0.000000   0.000000   0.000000   0.000000   0.000000   0.000000   0.000000   0.000000   0.000000   0.000000   0.000000   0.000000   0.000000   0.000000   0.000000   0.000000   0.000000   0.000000   0.000000
 -2.376531   0.925472   3.976345   0.106150   0.192121   0.264294   0.021867  -0.076731  -0.378024  -0.053305  -0.066046   0.042729  -0.020449   0.069159   0.086135  -0.077122  -0.875310  -0.646252  -1.177169  -0.353478   2.522268   0.022767   1.461225   0.015053  -0.211435   0.531697  -2.499610   0.048124   0.549897   0.560843  -1.217904   0.621606  -2.018500   0.022008  -1.668105  -0.015922  -0.093488  -0.347130   2.266116  -0.117593  -0.045503  -0.384068   0.052935   0.000055   0.000067   2.934739  -0.474201   0.446022  -0.435670   0.001176   0.001308  -0.618878   0.113417  -0.276465   1.905643   0.000274   0.005029   0.797876   0.267226  -0.134698  -1.113718  -0.001337  -0.005576
 -2.376375   0.927716   3.976598   0.221389   0.325407   0.216161   0.091591  -0.129931  -0.498458  -0.088998  -0.125428   0.188134  -0.004089   0.139301   0.168408  -0.170369  -1.955953  -0.682173  -2.298613  -0.921613   5.403114   0.050253   2.807023   0.025490  -0.415227   1.313010  -4.490082   0.079241   1.314452   0.503787  -2.338458   1.403502  -4.320277   0.048516  -3.209346  -0.026153  -0.189674  -0.937480   4.054580  -0.080380   0.095454  -0.351868  -0.383406  -0.000011  -0.000992   4.197455  -0.740479   0.558434  -2.780248   0.002312   0.001162  -1.500139   0.116045  -0.257314   3.321026   0.000752   0.005638   1.286888   0.390372  -0.250579  -3.058311  -0.003182  -0.008969
 -2.375982   0.931060   3.976962   0.192328   0.331895   0.220105   0.233662  -0.149290  -0.679876  -0.055889  -0.157075   0.335310   0.044438   0.206497   0.245831  -0.253746  -3.107503  -0.332888  -3.306425  -1.616532   8.385157   0.073471   4.021089   0.032574  -0.605945   1.903395  -5.747840   0.112555   2.185710   0.142428  -3.344675   2.297570  -6.700073   0.070848  -4.602759  -0.032705  -0.282524  -1.334829   5.223456  -0.208354   0.237573  -0.386156  -0.306725   0.000010  -0.000695   5.829977  -0.981124   0.799414  -5.843099   0.006226   0.004443  -2.240392   0.212725  -0.330025   5.018173   0.001914   0.005877   1.953135   0.603437  -0.369321  -4.751589  -0.004697  -0.012089
 -2.375367   0.934815   3.977767   0.104395   0.355268   0.287442   0.306690  -0.199665  -0.899498  -0.022054  -0.208838   0.459407   0.116362   0.268198   0.311125  -0.316145  -4.307063   0.223443  -4.196177  -2.411983  11.335114   0.089949   5.117000   0.038348  -0.800245   2.270244  -6.507890   0.155725   3.105006  -0.381363  -4.236741   3.256530  -9.051437   0.086782  -5.869919  -0.037932  -0.382816  -1.533425   5.973422  -0.261882   0.339759  -0.502868  -0.245380   0.000034  -0.000489   7.687149  -1.216420   1.101789  -9.114248   0.009970   0.008798  -2.810887   0.318720  -0.482996   6.746857   0.003210   0.006342   2.621521   0.815711  -0.485707  -5.771343  -0.005019  -0.012891
 -2.374569   0.938603   3.978911   0.003609   0.383240   0.396380   0.295266  -0.266205  -1.128946  -0.032326  -0.277343   0.565145   0.189662   0.325525   0.366913  -0.352986  -5.525777   0.877372  -4.971552  -3.276870  14.177512   0.099760   6.108272   0.043082  -1.007383   2.441780  -6.976931   0.211245   4.041378  -0.984744  -5.021129   4.251105 -11.318201   0.096349  -7.026447  -0.042186  -0.495878  -1.572953   6.471022  -0.283874   0.423502  -0.676783  -0.196304   0.000055  -0.000344   9.589458  -1.431705   1.427238 -12.350819   0.012269   0.012955  -3.240828   0.422882  -0.683427   8.441376   0.004360   0.006581   3.264610   1.011110  -0.600969  -6.484092  -0.004865  -0.012473
 -2.373639   0.942306   3.980283  -0.082596   0.398205   0.518841   0.195175  -0.339444  -1.346424  -0.097551  -0.355415   0.663648   0.255914   0.379050   0.416936  -0.362202  -6.740100   1.570670  -5.639890  -4.181722  16.876869   0.104074   7.008452   0.046740  -1.226796   2.461817  -7.290601   0.280676   4.976639  -1.622168  -5.706145   5.259582 -13.473394   0.100596  -8.085354  -0.045425  -0.620741  -1.493002   6.827391  -0.253258   0.478212  -0.853164  -0.157044   0.000062  -0.000251  11.438838  -1.642887   1.755684 -15.502740   0.013463   0.017854  -3.561882   0.522868  -0.895988  10.071279   0.005205   0.006377   3.871639   1.189028  -0.713101  -7.065132  -0.004534  -0.011560
 -2.372884   0.945592   3.980647   0.122625   0.214459   0.275624   0.139657  -0.252043  -1.034378  -0.487136  -0.413844   0.712322   0.260496   0.271835   0.376415  -0.315733  -7.854026   1.901189  -6.330765  -5.243443  19.037941   0.104996   8.108610   0.053022  -1.473352   2.188533  -6.912027   0.312694   6.161098  -1.788230  -6.861839   6.126387 -15.657557   0.099930  -9.256802  -0.055744  -0.806741  -1.233858   6.676142  -1.013655   0.438125  -0.612186   0.969367   0.000104  -0.002460  11.770632  -1.663446   2.180940 -14.517500   0.008004   0.010808  -3.903478   0.581466  -0.683153  10.155669   0.004190   0.005007   6.733834   1.281603  -0.766430 -14.640705  -0.002377  -0.010347
 -2.372243   0.948595   3.980493   0.330278   0.118438  -0.014407   0.139360  -0.208746  -0.678426  -0.846251  -0.494998   0.792658   0.252378   0.164042   0.348643  -0.272584  -8.903358   2.000637  -6.951851  -6.253826  20.887583   0.099368   9.139019   0.056100  -1.714517   1.931034  -6.728283   0.335341   7.265827  -1.777515  -7.925662   6.959414 -17.571437   0.093210 -10.361464  -0.061905  -1.001345  -1.033921   6.624848  -1.788452   0.379764  -0.325888   2.096559   0.000090  -0.003470  12.079944  -1.680716   2.579095 -13.612482   0.003881   0.006216  -4.268224   0.625773  -0.425116  10.123469   0.003342   0.004017   9.450116   1.376129  -0.821216 -21.431981  -0.000528  -0.013735
 -2.371710   0.951374   3.979918   0.517846   0.083211  -0.308263   0.182266  -0.186962  -0.326355  -1.148255  -0.589595   0.882880   0.245741   0.062981   0.329501  -0.235867  -9.880735   1.955412  -7.514102  -7.203677  22.503207   0.090511  10.104793   0.056720  -1.943983   1.711417  -6.762220   0.349784   8.279010  -1.642656  -8.906929   7.746881 -19.254423   0.083485 -11.400231  -0.064717  -1.184059  -0.888508   6.747027  -2.521354   0.322083  -0.045778   3.152538   0.000140  -0.003550  12.369203  -1.694763   2.951186 -12.781147   0.000915   0.003372  -4.652738   0.669065  -0.163759  10.052746   0.002645   0.003202  12.026187   1.469748  -0.878608 -27.489185   0.001883  -0.018853
 -2.371280   0.954557   3.978906   0.686346   0.026736  -0.499565   0.267644  -0.154329  -0.067645  -1.404373  -0.671276   0.941901   0.243169  -0.030437   0.312146  -0.210832 -10.775443   1.863039  -8.026435  -8.087811  23.957542   0.080802  11.012594   0.055651  -2.160029   1.542200  -6.948721   0.354931   9.210090  -1.451925  -9.814281   8.490081 -20.754293   0.073151 -12.374878  -0.064908  -1.355752  -0.787002   7.021868  -3.224773   0.271106   0.130858   4.135499   0.000171  -0.003677  12.640537  -1.706334   3.298109 -12.007370  -0.001213   0.001225  -5.065540   0.649199   0.009060   9.921077   0.002094   0.002638  14.195882   1.522613  -0.823118 -30.217943   0.004670  -0.014122
 -2.370986   0.957779   3.977606   0.823510  -0.061126  -0.712113   0.381937  -0.110884   0.215325  -1.611229  -0.736545   1.004401   0.244868  -0.117300   0.294438  -0.197125 -11.591331   1.695478  -8.497154  -8.905354  25.259033   0.070820  11.866972   0.053509  -2.363493   1.418688  -7.214012   0.353485  10.070053  -1.208424 -10.651887   9.193021 -22.104621   0.062778 -13.289285  -0.063356  -1.517478  -0.718061   7.365678  -3.874509   0.221259   0.335978   5.048217   0.000120  -0.003912  12.893060  -1.715719   3.622002 -11.303290  -0.002712  -0.000427  -5.485435   0.635145   0.223475   9.809420   0.001677   0.002191  16.439172   1.565860  -0.842292 -33.019984   0.005504  -0.010211
 -2.370807   0.960919   3.976111   0.938808  -0.145989  -0.940544   0.507331  -0.071941   0.507213  -1.781541  -0.797618   1.076124   0.249686  -0.198613   0.280144  -0.192113 -12.341602   1.472534  -8.930742  -9.663991  26.424430   0.061132  12.670162   0.050728  -2.554972   1.335270  -7.547169   0.345066  10.863189  -0.923228 -11.427975   9.853963 -23.318669   0.052889 -14.147674  -0.060732  -1.669227  -0.679943   7.765416  -4.468890   0.170112   0.554424   5.896908   0.000088  -0.003982  13.127966  -1.723298   3.924584 -10.663146  -0.003669  -0.001521  -5.894575   0.653939   0.457958   9.748857   0.001342   0.001774  18.657290   1.632225  -0.905473 -35.833551   0.005734  -0.009023
 -2.370836   0.963438   3.974215   0.924871  -0.258691  -1.265244   0.824266  -0.111108   0.880484  -1.925056  -0.916036   1.146508   0.236094  -0.255686   0.250195  -0.375192 -12.991465   1.168463  -9.688569 -10.313501  27.297793   0.051743  14.080302   0.059254  -2.780589   0.693107  -7.688935   0.427701  11.657451  -0.603842 -11.979621  10.660146 -24.325290   0.043997 -15.498473  -0.060083  -1.842830  -0.579202   8.121943  -5.286291  -0.000734   0.904617   8.335139  -0.001070  -0.008322  11.302453  -1.795025   4.016403 -10.236169  -0.003453  -0.002360  -6.259421   0.440569   0.819064   9.824320   0.001030   0.001233  19.922944   1.703877  -0.864180 -35.983617   0.004748  -0.006857
